<svg xmlns="http://www.w3.org/2000/svg" xmlns:xlink="http://www.w3.org/1999/xlink" width="500" zoomAndPan="magnify" viewBox="0 0 375 374.999991" height="500" preserveAspectRatio="xMidYMid meet" version="1.0"><defs><g/><clipPath id="6df27e1bc6"><path d="M 64.421875 182.546875 L 310.578125 182.546875 L 310.578125 212.996094 L 64.421875 212.996094 Z M 64.421875 182.546875 " clip-rule="nonzero"/></clipPath></defs><g fill="#000000" fill-opacity="1"><g transform="translate(85.8672, 239.999984)"><g><path d="M 3 0 L 3 -1.5 L 6 -2.546875 C 9.394531 -3.648438 11.09375 -6.5 11.09375 -11.09375 L 11.09375 -87.90625 C 11.09375 -89.90625 10.867188 -91.503906 10.421875 -92.703125 C 9.972656 -93.898438 8.800781 -94.898438 6.90625 -95.703125 L 3 -97.5 L 3 -99 L 31.953125 -99 L 59.703125 -26.40625 L 85.796875 -99 L 115.34375 -99 L 115.34375 -97.5 L 112.953125 -96.59375 C 111.046875 -95.894531 109.742188 -94.921875 109.046875 -93.671875 C 108.347656 -92.421875 108 -90.796875 108 -88.796875 L 108 -10.34375 C 108 -8.34375 108.25 -6.789062 108.75 -5.6875 C 109.25 -4.59375 110.445312 -3.644531 112.34375 -2.84375 L 115.34375 -1.5 L 115.34375 0 L 78 0 L 78 -1.5 L 81.15625 -2.84375 C 83.050781 -3.644531 84.25 -4.59375 84.75 -5.6875 C 85.25 -6.789062 85.5 -8.34375 85.5 -10.34375 L 85.5 -44.09375 L 85.796875 -87 L 54.453125 0 L 46.953125 0 L 14.25 -85.953125 L 14.703125 -48.59375 L 14.703125 -10.796875 C 14.703125 -8.597656 15.023438 -6.820312 15.671875 -5.46875 C 16.328125 -4.125 17.601562 -3.148438 19.5 -2.546875 L 22.796875 -1.5 L 22.796875 0 Z M 3 0 "/></g></g></g><g fill="#000000" fill-opacity="1"><g transform="translate(210.967228, 239.999984)"><g><path d="M 35.546875 2.703125 C 30.046875 2.703125 24.445312 2.023438 18.75 0.671875 C 13.050781 -0.671875 8.300781 -2.445312 4.5 -4.65625 L 5.25 -25.046875 L 6.75 -25.046875 L 11.40625 -15.296875 C 12.800781 -12.492188 14.296875 -10.019531 15.890625 -7.875 C 17.492188 -5.726562 19.695312 -4.050781 22.5 -2.84375 C 24.5 -1.84375 26.421875 -1.164062 28.265625 -0.8125 C 30.117188 -0.46875 32.195312 -0.296875 34.5 -0.296875 C 40.601562 -0.296875 45.425781 -1.945312 48.96875 -5.25 C 52.519531 -8.550781 54.296875 -12.800781 54.296875 -18 C 54.296875 -22.894531 53.09375 -26.71875 50.6875 -29.46875 C 48.289062 -32.21875 44.445312 -34.894531 39.15625 -37.5 L 33 -40.203125 C 24.394531 -44.003906 17.664062 -48.378906 12.8125 -53.328125 C 7.96875 -58.273438 5.546875 -64.847656 5.546875 -73.046875 C 5.546875 -78.953125 7.070312 -84.050781 10.125 -88.34375 C 13.175781 -92.644531 17.425781 -95.945312 22.875 -98.25 C 28.320312 -100.550781 34.695312 -101.703125 42 -101.703125 C 47.300781 -101.703125 52.328125 -101 57.078125 -99.59375 C 61.828125 -98.195312 65.953125 -96.300781 69.453125 -93.90625 L 68.546875 -75.90625 L 67.046875 -75.90625 L 60.90625 -87.15625 C 59.195312 -90.65625 57.492188 -93.128906 55.796875 -94.578125 C 54.097656 -96.023438 52.148438 -97.050781 49.953125 -97.65625 C 48.648438 -98.050781 47.445312 -98.320312 46.34375 -98.46875 C 45.25 -98.625 43.851562 -98.703125 42.15625 -98.703125 C 37.050781 -98.703125 32.75 -97.222656 29.25 -94.265625 C 25.75 -91.316406 24 -87.34375 24 -82.34375 C 24 -77.25 25.347656 -73.175781 28.046875 -70.125 C 30.742188 -67.070312 34.695312 -64.347656 39.90625 -61.953125 L 46.796875 -58.953125 C 56.398438 -54.753906 63.300781 -50.28125 67.5 -45.53125 C 71.695312 -40.78125 73.796875 -34.65625 73.796875 -27.15625 C 73.796875 -18.351562 70.46875 -11.175781 63.8125 -5.625 C 57.164062 -0.0703125 47.742188 2.703125 35.546875 2.703125 Z M 35.546875 2.703125 "/></g></g></g><g clip-path="url(#6df27e1bc6)"><path fill="#ffffff" d="M 64.421875 182.546875 L 310.578125 182.546875 L 310.578125 212.996094 L 64.421875 212.996094 Z M 64.421875 182.546875 " fill-opacity="1" fill-rule="nonzero"/></g><g fill="#000000" fill-opacity="1"><g transform="translate(118.23702, 203.326875)"><g><path d="M 9.421875 -8.609375 L 9.421875 0 L 8.453125 0 L 8.453125 -7.125 L 5.265625 -3.03125 L 2.03125 -7.125 L 2.03125 0 L 1.046875 0 L 1.046875 -8.609375 L 2.1875 -8.609375 L 5.265625 -4.53125 L 8.296875 -8.609375 Z M 9.421875 -8.609375 "/></g></g></g><g fill="#000000" fill-opacity="1"><g transform="translate(137.421841, 203.326875)"><g><path d="M 2.03125 0 L 1.046875 0 L 1.046875 -8.609375 L 2.03125 -8.609375 Z M 2.03125 0 "/></g></g></g><g fill="#000000" fill-opacity="1"><g transform="translate(149.211925, 203.326875)"><g><path d="M 9.421875 -8.609375 L 9.421875 0 L 8.453125 0 L 8.453125 -7.125 L 5.265625 -3.03125 L 2.03125 -7.125 L 2.03125 0 L 1.046875 0 L 1.046875 -8.609375 L 2.1875 -8.609375 L 5.265625 -4.53125 L 8.296875 -8.609375 Z M 9.421875 -8.609375 "/></g></g></g><g fill="#000000" fill-opacity="1"><g transform="translate(168.396746, 203.326875)"><g><path d="M 2.03125 0 L 1.046875 0 L 1.046875 -8.609375 L 2.03125 -8.609375 Z M 2.03125 0 "/></g></g></g><g fill="#000000" fill-opacity="1"><g transform="translate(180.186832, 203.326875)"><g><path d="M 2.03125 -7.28125 C 1.875 -7.144531 1.765625 -6.988281 1.703125 -6.8125 C 1.648438 -6.632812 1.625 -6.445312 1.625 -6.25 C 1.625 -6.0625 1.707031 -5.882812 1.875 -5.71875 C 2.039062 -5.550781 2.265625 -5.410156 2.546875 -5.296875 C 2.828125 -5.191406 3.144531 -5.09375 3.5 -5 C 3.851562 -4.914062 4.210938 -4.828125 4.578125 -4.734375 C 4.953125 -4.648438 5.316406 -4.546875 5.671875 -4.421875 C 6.023438 -4.304688 6.335938 -4.160156 6.609375 -3.984375 C 7.234375 -3.585938 7.546875 -3.050781 7.546875 -2.375 C 7.546875 -1.570312 7.242188 -0.957031 6.640625 -0.53125 C 6.035156 -0.101562 5.203125 0.109375 4.140625 0.109375 C 2.929688 0.109375 2.007812 -0.144531 1.375 -0.65625 C 0.8125 -1.101562 0.492188 -1.742188 0.421875 -2.578125 L 1.4375 -2.578125 C 1.46875 -1.984375 1.75 -1.53125 2.28125 -1.21875 C 2.75 -0.945312 3.367188 -0.8125 4.140625 -0.8125 C 5.753906 -0.8125 6.5625 -1.320312 6.5625 -2.34375 C 6.5625 -2.6875 6.414062 -2.957031 6.125 -3.15625 C 5.832031 -3.351562 5.46875 -3.515625 5.03125 -3.640625 C 4.59375 -3.773438 4.117188 -3.898438 3.609375 -4.015625 C 3.109375 -4.128906 2.640625 -4.273438 2.203125 -4.453125 C 1.765625 -4.628906 1.398438 -4.863281 1.109375 -5.15625 C 0.816406 -5.445312 0.671875 -5.835938 0.671875 -6.328125 C 0.671875 -7.035156 0.9375 -7.609375 1.46875 -8.046875 C 2.007812 -8.484375 2.820312 -8.703125 3.90625 -8.703125 C 5 -8.703125 5.847656 -8.453125 6.453125 -7.953125 C 6.992188 -7.515625 7.28125 -6.945312 7.3125 -6.25 L 6.3125 -6.25 C 6.226562 -6.957031 5.769531 -7.429688 4.9375 -7.671875 C 4.644531 -7.753906 4.28125 -7.796875 3.84375 -7.796875 C 3.40625 -7.796875 3.035156 -7.742188 2.734375 -7.640625 C 2.429688 -7.546875 2.195312 -7.425781 2.03125 -7.28125 Z M 2.03125 -7.28125 "/></g></g></g><g fill="#000000" fill-opacity="1"><g transform="translate(196.88942, 203.326875)"><g><path d="M 4.890625 -0.84375 C 5.503906 -0.84375 6.039062 -1 6.5 -1.3125 C 6.96875 -1.625 7.316406 -2.046875 7.546875 -2.578125 L 8.5625 -2.578125 C 8.28125 -1.765625 7.8125 -1.125 7.15625 -0.65625 C 6.445312 -0.144531 5.617188 0.109375 4.671875 0.109375 C 3.410156 0.109375 2.390625 -0.320312 1.609375 -1.1875 C 0.867188 -2.007812 0.5 -3.046875 0.5 -4.296875 C 0.5 -5.554688 0.867188 -6.597656 1.609375 -7.421875 C 2.390625 -8.273438 3.410156 -8.703125 4.671875 -8.703125 C 5.617188 -8.703125 6.445312 -8.453125 7.15625 -7.953125 C 7.8125 -7.484375 8.28125 -6.84375 8.5625 -6.03125 L 7.546875 -6.03125 C 7.316406 -6.5625 6.96875 -6.984375 6.5 -7.296875 C 6.039062 -7.609375 5.503906 -7.765625 4.890625 -7.765625 C 4.273438 -7.765625 3.765625 -7.675781 3.359375 -7.5 C 2.953125 -7.320312 2.609375 -7.078125 2.328125 -6.765625 C 1.765625 -6.128906 1.484375 -5.304688 1.484375 -4.296875 C 1.484375 -3.296875 1.765625 -2.476562 2.328125 -1.84375 C 2.921875 -1.175781 3.773438 -0.84375 4.890625 -0.84375 Z M 4.890625 -0.84375 "/></g></g></g><g fill="#000000" fill-opacity="1"><g transform="translate(214.566695, 203.326875)"><g><path d="M 2.03125 -7.671875 L 2.03125 -4.78125 L 6.8125 -4.78125 L 6.8125 -3.828125 L 2.03125 -3.828125 L 2.03125 -0.9375 L 7.390625 -0.9375 L 7.390625 0 L 1.046875 0 L 1.046875 -8.609375 L 7.390625 -8.609375 L 7.390625 -7.671875 Z M 2.03125 -7.671875 "/></g></g></g><g fill="#000000" fill-opacity="1"><g transform="translate(231.178308, 203.326875)"><g><path d="M 8.46875 -8.609375 L 8.46875 0 L 7.34375 0 L 2.03125 -7.265625 L 2.03125 0 L 1.046875 0 L 1.046875 -8.609375 L 2.1875 -8.609375 L 7.5 -1.359375 L 7.5 -8.609375 Z M 8.46875 -8.609375 "/></g></g></g><g fill="#000000" fill-opacity="1"><g transform="translate(249.414421, 203.326875)"><g><path d="M 7.15625 -7.671875 L 4.15625 -7.671875 L 4.15625 0 L 3.1875 0 L 3.1875 -7.671875 L 0.1875 -7.671875 L 0.1875 -8.609375 L 7.15625 -8.609375 Z M 7.15625 -7.671875 "/></g></g></g><g fill="#000000" fill-opacity="1"><g transform="translate(141.213486, 265.483517)"><g><path d="M 1.25 0 L 0.640625 0 L 0.640625 -5.296875 L 3.03125 -5.296875 C 3.59375 -5.296875 4.039062 -5.140625 4.375 -4.828125 C 4.695312 -4.523438 4.859375 -4.113281 4.859375 -3.59375 C 4.859375 -3.070312 4.691406 -2.65625 4.359375 -2.34375 C 4.035156 -2.039062 3.59375 -1.890625 3.03125 -1.890625 L 1.25 -1.890625 Z M 1.25 -4.734375 L 1.25 -2.453125 L 2.984375 -2.453125 C 3.398438 -2.453125 3.710938 -2.550781 3.921875 -2.75 C 4.140625 -2.957031 4.25 -3.238281 4.25 -3.59375 C 4.25 -3.945312 4.140625 -4.222656 3.921875 -4.421875 C 3.710938 -4.628906 3.398438 -4.734375 2.984375 -4.734375 Z M 1.25 -4.734375 "/></g></g></g><g fill="#000000" fill-opacity="1"><g transform="translate(151.02983, 265.483517)"><g><path d="M 1.25 -4.71875 L 1.25 -2.9375 L 4.1875 -2.9375 L 4.1875 -2.359375 L 1.25 -2.359375 L 1.25 -0.578125 L 4.546875 -0.578125 L 4.546875 0 L 0.640625 0 L 0.640625 -5.296875 L 4.546875 -5.296875 L 4.546875 -4.71875 Z M 1.25 -4.71875 "/></g></g></g><g fill="#000000" fill-opacity="1"><g transform="translate(160.686166, 265.483517)"><g><path d="M 1.25 0 L 0.640625 0 L 0.640625 -5.296875 L 3.1875 -5.296875 C 3.71875 -5.296875 4.148438 -5.144531 4.484375 -4.84375 C 4.804688 -4.550781 4.96875 -4.148438 4.96875 -3.640625 C 4.96875 -2.972656 4.691406 -2.519531 4.140625 -2.28125 C 3.984375 -2.21875 3.832031 -2.171875 3.6875 -2.140625 L 5.078125 0 L 4.375 0 L 3.09375 -2.03125 L 1.25 -2.03125 Z M 1.25 -2.59375 L 3.078125 -2.59375 C 3.640625 -2.59375 4.03125 -2.769531 4.25 -3.125 C 4.332031 -3.257812 4.375 -3.429688 4.375 -3.640625 C 4.375 -3.972656 4.257812 -4.238281 4.03125 -4.4375 C 3.800781 -4.632812 3.492188 -4.734375 3.109375 -4.734375 L 1.25 -4.734375 Z M 1.25 -2.59375 "/></g></g></g><g fill="#000000" fill-opacity="1"><g transform="translate(170.830523, 265.483517)"><g><path d="M 1.25 -4.71875 L 1.25 -2.875 L 4.125 -2.875 L 4.125 -2.296875 L 1.25 -2.296875 L 1.25 0 L 0.640625 0 L 0.640625 -5.296875 L 4.46875 -5.296875 L 4.46875 -4.71875 Z M 1.25 -4.71875 "/></g></g></g><g fill="#000000" fill-opacity="1"><g transform="translate(180.28685, 265.483517)"><g><path d="M 5.09375 -5.296875 L 5.09375 -2.28125 C 5.09375 -1.570312 4.878906 -1.003906 4.453125 -0.578125 C 4.035156 -0.148438 3.492188 0.0625 2.828125 0.0625 C 2.171875 0.0625 1.628906 -0.148438 1.203125 -0.578125 C 0.785156 -1.003906 0.578125 -1.570312 0.578125 -2.28125 L 0.578125 -5.296875 L 1.1875 -5.296875 L 1.1875 -2.265625 C 1.1875 -1.691406 1.359375 -1.242188 1.703125 -0.921875 C 1.992188 -0.648438 2.367188 -0.515625 2.828125 -0.515625 C 3.296875 -0.515625 3.675781 -0.648438 3.96875 -0.921875 C 4.3125 -1.242188 4.484375 -1.691406 4.484375 -2.265625 L 4.484375 -5.296875 Z M 5.09375 -5.296875 "/></g></g></g><g fill="#000000" fill-opacity="1"><g transform="translate(190.751217, 265.483517)"><g><path d="M 5.796875 -5.296875 L 5.796875 0 L 5.203125 0 L 5.203125 -4.390625 L 3.234375 -1.859375 L 1.25 -4.390625 L 1.25 0 L 0.640625 0 L 0.640625 -5.296875 L 1.34375 -5.296875 L 3.234375 -2.78125 L 5.109375 -5.296875 Z M 5.796875 -5.296875 "/></g></g></g><g fill="#000000" fill-opacity="1"><g transform="translate(201.991619, 265.483517)"><g><path d="M 1.25 -4.71875 L 1.25 -2.9375 L 4.1875 -2.9375 L 4.1875 -2.359375 L 1.25 -2.359375 L 1.25 -0.578125 L 4.546875 -0.578125 L 4.546875 0 L 0.640625 0 L 0.640625 -5.296875 L 4.546875 -5.296875 L 4.546875 -4.71875 Z M 1.25 -4.71875 "/></g></g></g><g fill="#000000" fill-opacity="1"><g transform="translate(211.647957, 265.483517)"><g><path d="M 1.25 0 L 0.640625 0 L 0.640625 -5.296875 L 3.1875 -5.296875 C 3.71875 -5.296875 4.148438 -5.144531 4.484375 -4.84375 C 4.804688 -4.550781 4.96875 -4.148438 4.96875 -3.640625 C 4.96875 -2.972656 4.691406 -2.519531 4.140625 -2.28125 C 3.984375 -2.21875 3.832031 -2.171875 3.6875 -2.140625 L 5.078125 0 L 4.375 0 L 3.09375 -2.03125 L 1.25 -2.03125 Z M 1.25 -2.59375 L 3.078125 -2.59375 C 3.640625 -2.59375 4.03125 -2.769531 4.25 -3.125 C 4.332031 -3.257812 4.375 -3.429688 4.375 -3.640625 C 4.375 -3.972656 4.257812 -4.238281 4.03125 -4.4375 C 3.800781 -4.632812 3.492188 -4.734375 3.109375 -4.734375 L 1.25 -4.734375 Z M 1.25 -2.59375 "/></g></g></g><g fill="#000000" fill-opacity="1"><g transform="translate(221.792317, 265.483517)"><g><path d="M 1.25 0 L 0.640625 0 L 0.640625 -5.296875 L 1.25 -5.296875 Z M 1.25 0 "/></g></g></g><g fill="#000000" fill-opacity="1"><g transform="translate(228.480544, 265.483517)"><g><path d="M 5.265625 0 L 4.609375 0 L 3.953125 -1.53125 L 1.34375 -1.53125 L 0.6875 0 L 0.03125 0 L 2.265625 -5.296875 L 3.03125 -5.296875 Z M 3.734375 -2.09375 L 2.640625 -4.671875 L 1.5625 -2.09375 Z M 3.734375 -2.09375 "/></g></g></g></svg>